<svg width="180" height="200" viewBox="0 0 180 200" fill="none" xmlns="http://www.w3.org/2000/svg">
<path d="M179.201 61.1073C179.201 53.2057 174.986 45.9038 168.144 41.951L100.668 2.96722C93.8199 -0.98916 85.3807 -0.98907 78.5328 2.96747L11.0557 41.9537C4.21408 45.9066 3.74492e-06 53.2082 3.39953e-06 61.1097L0 138.882C-3.45353e-07 146.783 4.21334 154.084 11.054 158.037L78.531 197.031C85.3799 200.989 93.8207 200.989 100.67 197.031L168.146 158.039C174.987 154.086 179.201 146.785 179.201 138.884V61.1073Z" fill="#01283C"/>
<mask id="mask0_57_1975" style="mask-type:alpha" maskUnits="userSpaceOnUse" x="51" y="49" width="77" height="31">
<path d="M127.764 49.2266H70.8219C60.1162 49.2266 51.4375 57.9053 51.4375 68.611V79.0933H108.379C119.085 79.0933 127.764 70.4146 127.764 59.7089V49.2266Z" fill="#C4C4C4"/>
</mask>
<g mask="url(#mask0_57_1975)">
<path d="M47.0127 81.1453L47.0127 47.0137M52.5436 81.1453L52.5436 47.0137M58.0745 81.1453L58.0745 47.0137M63.6053 81.1453L63.6053 47.0137M69.1362 81.1453L69.1362 47.0137M74.6671 81.1453L74.6671 47.0137M80.198 81.1453L80.198 47.0137M85.7289 81.1453V47.0137" stroke="#3CABE0" stroke-width="2.76544"/>
<path d="M92.6426 81.1453L92.6426 47.0137M99.2796 81.1453L99.2796 47.0137M105.917 81.1453L105.917 47.0137M112.554 81.1453L112.554 47.0137M119.191 81.1453L119.191 47.0137M125.828 81.1453L125.828 47.0137M132.465 81.1453V47.0137" stroke="#3CABE0" stroke-width="5.53088"/>
</g>
<mask id="mask1_57_1975" style="mask-type:alpha" maskUnits="userSpaceOnUse" x="51" y="121" width="77" height="30">
<path d="M127.764 121.127H70.8219C60.1162 121.127 51.4375 129.806 51.4375 140.511V150.994H108.379C119.085 150.994 127.764 142.315 127.764 131.609V121.127Z" fill="#C4C4C4"/>
</mask>
<g mask="url(#mask1_57_1975)">
<path d="M47.0127 153.046L47.0127 118.914M52.5436 153.046L52.5436 118.914M58.0745 153.046L58.0745 118.914M63.6053 153.046L63.6053 118.914M69.1362 153.046L69.1362 118.914M74.6671 153.046L74.6671 118.914M80.198 153.046L80.198 118.914M85.7289 153.046V118.914" stroke="#3CABE0" stroke-width="2.76544"/>
<path d="M92.6426 153.046L92.6426 118.914M99.2796 153.046L99.2796 118.914M105.917 153.046L105.917 118.914M112.554 153.046L112.554 118.914M119.191 153.046L119.191 118.914M125.828 153.046L125.828 118.914M132.465 153.046V118.914" stroke="#3CABE0" stroke-width="5.53088"/>
</g>
<mask id="mask2_57_1975" style="mask-type:alpha" maskUnits="userSpaceOnUse" x="51" y="81" width="77" height="38">
<path d="M51.4375 81.3052H89.6006L127.764 118.915H89.8771L51.4375 81.3052Z" fill="#C4C4C4"/>
</mask>
<g mask="url(#mask2_57_1975)">
<path d="M84.6231 122.073V72.4556M77.9861 122.073L77.9861 72.4556M71.349 122.073L71.349 72.4556M64.712 122.073L64.712 72.4556M58.0749 122.073L58.0749 72.4556M51.4378 122.073L51.4378 72.4556M44.8008 122.073L44.8008 72.4556" stroke="white" stroke-width="5.53088"/>
<path d="M84.6231 122.073V72.4556M77.9861 122.073L77.9861 72.4556M71.349 122.073L71.349 72.4556M64.712 122.073L64.712 72.4556M58.0749 122.073L58.0749 72.4556M51.4378 122.073L51.4378 72.4556M44.8008 122.073L44.8008 72.4556" stroke="#E31837" stroke-width="5.53088"/>
<path d="M126.657 122.233L126.657 72.4556M124.445 122.233L124.445 72.4556M118.914 122.234L118.914 72.6157M113.383 122.234L113.383 72.6157M107.852 122.234L107.852 72.6157M102.322 122.234L102.322 72.6157M96.7906 122.234L96.7906 72.6157M91.2598 122.234L91.2598 72.6157" stroke="white" stroke-width="2.76544"/>
<path d="M126.657 122.233L126.657 72.4556M124.445 122.233L124.445 72.4556M118.914 122.234L118.914 72.6157M113.383 122.234L113.383 72.6157M107.852 122.234L107.852 72.6157M102.322 122.234L102.322 72.6157M96.7906 122.234L96.7906 72.6157M91.2598 122.234L91.2598 72.6157" stroke="#E31837" stroke-width="2.76544"/>
</g>
</svg>
