<svg width="422" height="200" viewBox="0 0 422 200" fill="none" xmlns="http://www.w3.org/2000/svg">
<path d="M203.338 107.15C203.562 114.984 209.438 120.356 219.175 120.356C227.793 120.356 233.669 115.488 233.669 108.437C233.725 100.714 227.401 98.6433 220.91 97.4681C214.754 96.4049 210.725 95.5654 210.725 91.5362C210.725 87.8427 213.803 85.94 218.224 85.94C222.98 85.94 226.114 88.6262 226.618 92.5995H233.054C232.774 85.3804 227.178 80.5117 218.224 80.5117C209.885 80.5117 204.289 85.1565 204.289 91.9839C204.289 99.7626 210.445 101.833 216.937 102.952C223.148 104.072 227.234 104.967 227.234 109.108C227.234 112.858 223.876 114.928 219.231 114.928C213.747 114.928 210.165 111.85 209.829 107.261L203.338 107.15Z" fill="#01283C"/>
<path d="M241.362 120.021H267.608V114.313H247.798V102.952H263.579V97.4122H247.798V86.5556H266.937V80.8475H241.362V120.021Z" fill="#01283C"/>
<path d="M308.864 114.313C307.689 114.313 306.906 113.977 306.178 113.249C308.808 109.892 310.263 105.415 310.263 100.434C310.263 88.9619 302.485 80.5117 291.236 80.5117C279.988 80.5117 272.209 88.9619 272.209 100.434C272.209 111.906 279.988 120.356 291.236 120.356C295.49 120.356 299.239 119.181 302.261 117.055L302.429 117.279C303.828 119.125 305.283 120.021 308.473 120.021H312.278V114.313H308.864ZM291.236 114.704C283.794 114.704 278.813 108.716 278.813 100.434C278.813 92.1518 283.794 86.1639 291.236 86.1639C298.679 86.1639 303.66 92.1518 303.66 100.434C303.66 103.232 303.1 105.806 302.037 107.933L300.862 106.422C299.519 104.631 298.232 103.68 295.322 103.68H291.125V109.276H294.594C295.937 109.276 296.777 109.892 297.728 111.179L298.567 112.298C296.609 113.809 294.091 114.704 291.236 114.704Z" fill="#01283C"/>
<path d="M340.428 120.021V117.223H321.681V80.8475H318.659V120.021H340.428Z" fill="#01283C"/>
<path d="M347.629 120.021H350.651V80.8475H347.629V120.021Z" fill="#01283C"/>
<path d="M360.751 120.021H363.773V109.78L372.67 99.5947L386.773 120.021H390.41L374.909 97.3002L389.123 80.8475H385.43L363.773 105.527V80.8475H360.751V120.021Z" fill="#01283C"/>
<path d="M396.935 120.021H421.782V117.223H399.956V101.385H417.64V98.5874H399.956V83.6456H421.054V80.8475H396.935V120.021Z" fill="#01283C"/>
<path d="M179.201 61.1073C179.201 53.2057 174.986 45.9038 168.144 41.951L100.668 2.96722C93.8199 -0.98916 85.3807 -0.98907 78.5328 2.96747L11.0557 41.9537C4.21408 45.9066 3.74492e-06 53.2082 3.39953e-06 61.1097L0 138.882C-3.45353e-07 146.783 4.21334 154.084 11.054 158.037L78.531 197.031C85.3799 200.989 93.8207 200.989 100.67 197.031L168.146 158.039C174.987 154.086 179.201 146.785 179.201 138.884V61.1073Z" fill="#01283C"/>
<mask id="mask0_57_1918" style="mask-type:alpha" maskUnits="userSpaceOnUse" x="51" y="49" width="77" height="31">
<path d="M127.764 49.2266H70.8219C60.1162 49.2266 51.4375 57.9053 51.4375 68.611V79.0933H108.379C119.085 79.0933 127.764 70.4146 127.764 59.7089V49.2266Z" fill="#C4C4C4"/>
</mask>
<g mask="url(#mask0_57_1918)">
<path d="M47.0132 81.1453L47.0132 47.0137M52.5441 81.1453L52.5441 47.0137M58.0749 81.1453L58.0749 47.0137M63.6058 81.1453L63.6058 47.0137M69.1367 81.1453L69.1367 47.0137M74.6676 81.1453L74.6676 47.0137M80.1985 81.1453L80.1985 47.0137M85.7294 81.1453V47.0137" stroke="#3CABE0" stroke-width="2.76544"/>
<path d="M92.6431 81.1453L92.6431 47.0137M99.2801 81.1453L99.2801 47.0137M105.917 81.1453L105.917 47.0137M112.554 81.1453L112.554 47.0137M119.191 81.1453L119.191 47.0137M125.828 81.1453L125.828 47.0137M132.465 81.1453V47.0137" stroke="#3CABE0" stroke-width="5.53088"/>
</g>
<mask id="mask1_57_1918" style="mask-type:alpha" maskUnits="userSpaceOnUse" x="51" y="121" width="77" height="30">
<path d="M127.764 121.127H70.8219C60.1162 121.127 51.4375 129.806 51.4375 140.511V150.994H108.379C119.085 150.994 127.764 142.315 127.764 131.609V121.127Z" fill="#C4C4C4"/>
</mask>
<g mask="url(#mask1_57_1918)">
<path d="M47.0132 153.046L47.0132 118.914M52.5441 153.046L52.5441 118.914M58.0749 153.046L58.0749 118.914M63.6058 153.046L63.6058 118.914M69.1367 153.046L69.1367 118.914M74.6676 153.046L74.6676 118.914M80.1985 153.046L80.1985 118.914M85.7294 153.046V118.914" stroke="#3CABE0" stroke-width="2.76544"/>
<path d="M92.6431 153.046L92.6431 118.914M99.2801 153.046L99.2801 118.914M105.917 153.046L105.917 118.914M112.554 153.046L112.554 118.914M119.191 153.046L119.191 118.914M125.828 153.046L125.828 118.914M132.465 153.046V118.914" stroke="#3CABE0" stroke-width="5.53088"/>
</g>
<mask id="mask2_57_1918" style="mask-type:alpha" maskUnits="userSpaceOnUse" x="51" y="81" width="77" height="38">
<path d="M51.4375 81.3052H89.6006L127.764 118.915H89.8771L51.4375 81.3052Z" fill="#C4C4C4"/>
</mask>
<g mask="url(#mask2_57_1918)">
<path d="M84.6221 122.073V72.4556M77.9851 122.073L77.9851 72.4556M71.348 122.073L71.348 72.4556M64.711 122.073L64.711 72.4556M58.0739 122.073L58.0739 72.4556M51.4369 122.073L51.4369 72.4556M44.7998 122.073L44.7998 72.4556" stroke="white" stroke-width="5.53088"/>
<path d="M84.6221 122.073V72.4556M77.9851 122.073L77.9851 72.4556M71.348 122.073L71.348 72.4556M64.711 122.073L64.711 72.4556M58.0739 122.073L58.0739 72.4556M51.4369 122.073L51.4369 72.4556M44.7998 122.073L44.7998 72.4556" stroke="#E31837" stroke-width="5.53088"/>
<path d="M126.657 122.233L126.657 72.4556M124.445 122.233L124.445 72.4556M118.914 122.234L118.914 72.6157M113.383 122.234L113.383 72.6157M107.852 122.234L107.852 72.6157M102.321 122.234L102.321 72.6157M96.7902 122.234L96.7902 72.6157M91.2593 122.234L91.2593 72.6157" stroke="white" stroke-width="2.76544"/>
<path d="M126.657 122.233L126.657 72.4556M124.445 122.233L124.445 72.4556M118.914 122.234L118.914 72.6157M113.383 122.234L113.383 72.6157M107.852 122.234L107.852 72.6157M102.321 122.234L102.321 72.6157M96.7902 122.234L96.7902 72.6157M91.2593 122.234L91.2593 72.6157" stroke="#E31837" stroke-width="2.76544"/>
</g>
</svg>
